Norah Jones The Fall (Deluxe live bonus tracks)(mp3 320kbs)ICM369
_________________________________________________________________

Import two CD edition includes a bonus CD containing six live tracks.

The Fall is the fourth studio album by American singer-songwriter Norah Jones, 
released November 17, 2009 on Blue Note Records.

Norah has taken a new direction on the The Fall, experimenting with different 
sounds and a new set of collaborators, including Jacquire King, a noted producer 
and engineer who has worked with Kings of Leon, Tom Waits, and Modest Mouse 
among others. 

Jones enlisted several songwriting collaborators, including Ryan Adams and 
Okkervil River’s Will Sheff, as well as her frequent partner Jesse Harris. 

Jones also put together a new group of musicians to perform on the album, including 
drummers Joey Waronker (Beck, R.E.M.) and James Gadson (Bill Withers), keyboardist 
James Poyser (Erykah Badu, Al Green), and guitarists Marc Ribot (Tom Waits, 
Elvis Costello) and Smokey Hormel (Johnny Cash, Joe Strummer).

Norah Jones always seemed almost unfairly equipped to survive the inexorable 
attrition that mows down legions of her fellow female singer-songwriters: young 
(23 at the release of her 2002 debut, Come Away With Me), beautiful, possessed of a 
lovely husky drawl and an appealingly picturesque back-story (Ravi Shankar is by now 
resigned to being recalled principally as Jones’ father, rather than as the world’s 
best-known sitarist). 

Jones didn’t merely survive, of course – her three albums to date have shifted 36 
million copies. In today’s climate, that seems as miraculous and unfathomable as a 
seeing someone walking a brachiosaurus.
__________

01 - Chasing Pirates

02 - Even Though

03 - Light As A Feather

04 - Young Blood

05 - I Wouldn't Need You

06 - Waiting

07 - It's Gonna Be

08 - You've Ruined Me

09 - Back To Manhattan

10 - Stuck

11 - December

12 - Tell Yer Mama

13 - Man Of The Hour

Brazilian Deluxe Edition/Target / iTunes Deluxe Version Bonus Tracks -

Live at the Living Room

01 - It's Gonna Be

02 - Waiting

03 - You've Ruined Me

04 - Jesus Etc.

05 - Cry, Cry, Cry

06 - Strangers
__________

Format                           : MPEG Audio
File size                        : 6.14 MiB
Duration                         : 2mn 40s
Overall bit rate                 : 320 Kbps
Album                            : The Fall
Track name                       : Chasing Pirates
Track name/Position              : 01
Performer                        : Norah Jones
Accompaniment                    : Norah Jones
Genre                            : Jazz
Recorded date                    : 2009
Writing library                  : LAME3.97

Audio
Format                           : MPEG Audio
Format version                   : Version 1
Format profile                   : Layer 3
Duration                         : 2mn 40s
Bit rate mode                    : Constant
Bit rate                         : 320 Kbps
Channel(s)                       : 2 channels
Sampling rate                    : 44.1 KHz
Stream size                      : 6.14 MiB (100%)
Writing library                  : LAME3.97
__________

Format                           : MPEG Audio
File size                        : 7.74 MiB
Duration                         : 3mn 22s
Overall bit rate                 : 320 Kbps
Album                            : The Fall - Bonus-CD- Live At The Living Room
Track name                       : It's Gonna Be
Track name/Position              : 01
Performer                        : Norah Jones
Accompaniment                    : Norah Jones
Genre                            : Jazz
Recorded date                    : 2009
Writing library                  : LAME3.97

Audio
Format                           : MPEG Audio
Format version                   : Version 1
Format profile                   : Layer 3
Duration                         : 3mn 22s
Bit rate mode                    : Constant
Bit rate                         : 320 Kbps
Channel(s)                       : 2 channels
Sampling rate                    : 44.1 KHz
Stream size                      : 7.74 MiB (100%)
Writing library                  : LAME3.97
__________

Mp3

Ripped:320

Enjoy:D

